<svg width="87" height="23" viewBox="0 0 87 23" fill="none" xmlns="http://www.w3.org/2000/svg">
<path fill-rule="evenodd" clip-rule="evenodd" d="M42.1425 0.780762L41.2459 2.00926H42.0387L43.0425 0.780762H42.1425ZM42.0893 2.65957H41.3252V6.54877H42.0893V2.65957ZM22.7302 3.97368C22.7302 2.30236 23.6192 1.26996 25.0514 1.26996C25.5676 1.2444 26.0745 1.41387 26.4716 1.74473C26.8686 2.07559 27.1267 2.54365 27.1946 3.05599H26.3976C26.3307 2.75237 26.1592 2.4819 25.9132 2.29188C25.6671 2.10185 25.3621 2.00436 25.0514 2.01643C24.1261 2.01643 23.5475 2.77006 23.5475 3.97368C23.5475 5.17393 24.1261 5.92714 25.0548 5.92714C25.3541 5.94954 25.6519 5.86698 25.8969 5.69366C26.142 5.52034 26.319 5.26708 26.3976 4.9774H27.1946C27.1169 5.47754 26.8534 5.92997 26.4567 6.24438C26.0601 6.5588 25.5595 6.71207 25.0548 6.6736C23.6226 6.6736 22.7302 5.64162 22.7302 3.97368ZM28.07 4.60255C28.0455 4.34696 28.0748 4.08909 28.1558 3.84546C28.2369 3.60184 28.3679 3.37784 28.5406 3.18784C28.7133 2.99784 28.9238 2.84603 29.1586 2.74215C29.3934 2.63827 29.6473 2.58461 29.9041 2.58461C30.1608 2.58461 30.4148 2.63827 30.6495 2.74215C30.8843 2.84603 31.0948 2.99784 31.2675 3.18784C31.4402 3.37784 31.5713 3.60184 31.6523 3.84546C31.7334 4.08909 31.7626 4.34696 31.7382 4.60255C31.7631 4.8584 31.7342 5.11663 31.6534 5.36064C31.5725 5.60466 31.4415 5.82907 31.2688 6.01944C31.0961 6.20982 30.8854 6.36194 30.6504 6.46605C30.4154 6.57016 30.1611 6.62394 29.9041 6.62394C29.647 6.62394 29.3928 6.57016 29.1578 6.46605C28.9227 6.36194 28.7121 6.20982 28.5394 6.01944C28.3666 5.82907 28.2356 5.60466 28.1548 5.36064C28.0739 5.11663 28.0451 4.8584 28.07 4.60255ZM30.9487 4.60255C30.9487 3.75951 30.57 3.26651 29.9053 3.26651C29.2382 3.26651 28.8629 3.75951 28.8629 4.60256C28.8629 5.45235 29.2382 5.94155 29.9053 5.94155C30.57 5.94154 30.9487 5.44896 30.9487 4.60255ZM33.5071 2.65956H32.7682V6.54877H33.5358V4.27352C33.5222 4.14563 33.5364 4.01629 33.5774 3.8944C33.6185 3.7725 33.6854 3.66093 33.7736 3.56731C33.8618 3.4737 33.9692 3.40027 34.0885 3.35205C34.2077 3.30383 34.336 3.28196 34.4644 3.28794C35.0321 3.28794 35.3037 3.59876 35.3037 4.22377V6.54872H36.0712V4.03102C36.099 3.8433 36.0842 3.65172 36.0279 3.4705C35.9716 3.28928 35.8752 3.12305 35.7459 2.98413C35.6166 2.84521 35.4577 2.73715 35.281 2.66797C35.1043 2.59879 34.9143 2.57026 34.7251 2.58449C34.4836 2.56486 34.242 2.62106 34.0339 2.74527C33.8259 2.86948 33.6618 3.05549 33.5645 3.2774H33.5071V2.65956ZM38.68 2.58461C39.5547 2.58461 40.1265 2.99157 40.2016 3.67731H39.4653C39.3945 3.3918 39.1152 3.20962 38.68 3.20962C38.2515 3.20962 37.926 3.41289 37.926 3.71653C37.926 3.94887 38.1225 4.09525 38.5443 4.19182L39.1903 4.34154C39.93 4.51318 40.2767 4.83116 40.2767 5.40262C40.2767 6.13474 39.5944 6.62395 38.6657 6.62395C37.7404 6.62395 37.1373 6.20601 37.069 5.5169H37.8374C37.9036 5.68091 38.023 5.81793 38.1765 5.90595C38.3299 5.99398 38.5084 6.02791 38.6834 6.0023C39.1617 6.0023 39.5016 5.7881 39.5016 5.47725C39.5016 5.2453 39.3194 5.09516 38.9297 5.00238L38.2516 4.84508C37.5119 4.67006 37.1694 4.33816 37.1694 3.75954C37.1694 3.07002 37.8012 2.58461 38.68 2.58461ZM43.2845 6.93805H44.0698C44.1347 7.22019 44.4595 7.40238 44.9774 7.40238C45.6167 7.40238 45.9954 7.09873 45.9954 6.58464V5.83817H45.9381C45.8177 6.04713 45.6418 6.21873 45.43 6.33402C45.2182 6.4493 44.9786 6.50378 44.7378 6.49144C43.7451 6.49144 43.131 5.72389 43.131 4.55948C43.131 3.37362 43.7518 2.59506 44.7454 2.59506C44.9923 2.58647 45.2368 2.64588 45.4521 2.76682C45.6675 2.88775 45.8455 3.06555 45.9667 3.2808H46.0275V2.65959H46.763V6.58081C46.763 7.47025 46.0663 8.03452 44.9664 8.03452C43.9947 8.03457 43.3663 7.5989 43.2845 6.93805ZM46.0098 4.55569C46.0098 3.78095 45.6091 3.28459 44.9554 3.28459C44.295 3.28459 43.9239 3.78097 43.9239 4.55569C43.9239 5.33083 44.295 5.82721 44.9554 5.82721C45.6133 5.8272 46.0098 5.33463 46.0098 4.55569ZM50.5253 6.54875H51.265V2.65955H50.4966V4.93436C50.5115 5.06494 50.497 5.19719 50.4542 5.32146C50.4115 5.44572 50.3415 5.55888 50.2495 5.65267C50.1574 5.74647 50.0456 5.81853 49.9221 5.8636C49.7987 5.90867 49.6668 5.92562 49.5359 5.9132C48.9717 5.9132 48.7186 5.61292 48.7186 4.98454V2.65955H47.9498V5.18446C47.923 5.37114 47.9384 5.56144 47.9948 5.74141C48.0511 5.92137 48.1471 6.08643 48.2756 6.22447C48.4041 6.36251 48.5619 6.47003 48.7373 6.53913C48.9128 6.60823 49.1015 6.63717 49.2896 6.62382C49.5334 6.64627 49.7781 6.59143 49.989 6.46706C50.1998 6.3427 50.3662 6.15512 50.4646 5.93091H50.5253V6.54875ZM55.7767 5.49862C55.6724 5.85407 55.4465 6.16153 55.1384 6.36722C54.8303 6.57291 54.4597 6.66373 54.0915 6.62379C53.8352 6.63056 53.5806 6.58148 53.3452 6.47997C53.1099 6.37846 52.8994 6.22695 52.7285 6.03595C52.5576 5.84495 52.4302 5.61904 52.3554 5.3739C52.2805 5.12876 52.2599 4.87026 52.2949 4.61635C52.2608 4.36166 52.2818 4.1026 52.3565 3.85673C52.4312 3.61086 52.5578 3.38391 52.7279 3.19124C52.8979 2.99857 53.1073 2.84468 53.342 2.73999C53.5767 2.6353 53.8311 2.58226 54.0881 2.58445C55.1703 2.58445 55.8231 3.32378 55.8231 4.54506V4.8129H53.0768V4.85591C53.0648 4.99863 53.0827 5.14229 53.1294 5.27768C53.1762 5.41306 53.2507 5.53719 53.3482 5.64209C53.4457 5.74699 53.5641 5.83036 53.6957 5.88684C53.8273 5.94332 53.9693 5.97168 54.1125 5.97009C54.2961 5.99213 54.4822 5.95907 54.6469 5.87511C54.8117 5.79115 54.9477 5.66009 55.0378 5.49859L55.7767 5.49862ZM53.0768 4.24523H55.0412C55.0509 4.11471 55.0331 3.9836 54.9891 3.86033C54.9451 3.73706 54.8758 3.62437 54.7856 3.52948C54.6955 3.4346 54.5865 3.35962 54.4656 3.30938C54.3447 3.25913 54.2147 3.23472 54.0839 3.23772C53.9511 3.23605 53.8194 3.26098 53.6964 3.31102C53.5734 3.36107 53.4617 3.43523 53.3679 3.52912C53.274 3.62302 53.1999 3.73475 53.1499 3.85774C53.0999 3.98073 53.075 4.11248 53.0768 4.24523ZM57.6567 1.14144H56.8892V6.54887H57.6567V1.14144ZM58.7235 4.60255C58.699 4.34696 58.7283 4.08909 58.8093 3.84546C58.8904 3.60184 59.0214 3.37784 59.1941 3.18784C59.3668 2.99784 59.5773 2.84603 59.8121 2.74215C60.0469 2.63827 60.3008 2.58461 60.5576 2.58461C60.8143 2.58461 61.0683 2.63827 61.3031 2.74215C61.5379 2.84603 61.7484 2.99784 61.9211 3.18784C62.0937 3.37784 62.2248 3.60184 62.3059 3.84546C62.3869 4.08909 62.4162 4.34696 62.3917 4.60255C62.4166 4.8584 62.3877 5.11663 62.3069 5.36064C62.2261 5.60466 62.0951 5.82907 61.9223 6.01944C61.7496 6.20982 61.5389 6.36194 61.3039 6.46605C61.0689 6.57016 60.8147 6.62394 60.5576 6.62394C60.3005 6.62394 60.0463 6.57016 59.8113 6.46605C59.5763 6.36194 59.3656 6.20982 59.1929 6.01944C59.0201 5.82907 58.8891 5.60466 58.8083 5.36064C58.7275 5.11663 58.6986 4.8584 58.7235 4.60255ZM61.6022 4.60255C61.6022 3.75951 61.2235 3.26651 60.5589 3.26651C59.8917 3.26651 59.5164 3.75951 59.5164 4.60256C59.5164 5.45235 59.8917 5.94155 60.5589 5.94155C61.2235 5.94154 61.6022 5.44896 61.6022 4.60255ZM68.1825 6.36722C68.4906 6.16153 68.7166 5.85407 68.8208 5.49862L68.082 5.49859C67.9919 5.66009 67.8558 5.79115 67.6911 5.87511C67.5263 5.95907 67.3403 5.99213 67.1567 5.97009C67.0135 5.97168 66.8715 5.94332 66.7399 5.88684C66.6083 5.83036 66.4899 5.74699 66.3924 5.64209C66.2949 5.53719 66.2203 5.41306 66.1736 5.27768C66.1268 5.14229 66.1089 4.99863 66.1209 4.85591V4.8129H68.8672V4.54506C68.8672 3.32378 68.2144 2.58445 67.1322 2.58445C66.8753 2.58226 66.6208 2.6353 66.3861 2.73999C66.1515 2.84468 65.942 2.99857 65.772 3.19124C65.602 3.38391 65.4753 3.61086 65.4006 3.85673C65.3259 4.1026 65.3049 4.36166 65.339 4.61635C65.304 4.87026 65.3246 5.12876 65.3995 5.3739C65.4744 5.61904 65.6017 5.84495 65.7726 6.03595C65.9436 6.22695 66.154 6.37846 66.3894 6.47997C66.6247 6.58148 66.8794 6.63056 67.1356 6.62379C67.5039 6.66373 67.8745 6.57291 68.1825 6.36722ZM68.0854 4.24523H66.1209C66.1192 4.11248 66.1441 3.98073 66.1941 3.85773C66.244 3.73474 66.3182 3.62301 66.412 3.52911C66.5059 3.43521 66.6176 3.36106 66.7406 3.31101C66.8635 3.26097 66.9953 3.23605 67.128 3.23772C67.2589 3.23472 67.3889 3.25913 67.5098 3.30938C67.6306 3.35962 67.7397 3.4346 67.8298 3.52948C67.92 3.62437 67.9893 3.73706 68.0333 3.86033C68.0773 3.9836 68.095 4.11471 68.0854 4.24523ZM69.8978 2.65956H70.6367V3.2774H70.694C70.7913 3.05549 70.9554 2.86948 71.1635 2.74527C71.3715 2.62106 71.6131 2.56486 71.8546 2.58449C72.0439 2.57026 72.2339 2.59879 72.4106 2.66797C72.5873 2.73715 72.7462 2.84521 72.8755 2.98413C73.0047 3.12305 73.1011 3.28928 73.1574 3.4705C73.2137 3.65172 73.2286 3.8433 73.2008 4.03102V6.54872H72.4332V4.22377C72.4332 3.59876 72.1616 3.28794 71.594 3.28794C71.4655 3.28196 71.3372 3.30383 71.218 3.35205C71.0988 3.40027 70.9914 3.4737 70.9032 3.56731C70.8149 3.66093 70.748 3.7725 70.707 3.8944C70.6659 4.01629 70.6517 4.14563 70.6653 4.27352V6.54877H69.8978V2.65956ZM79.1485 6.36722C79.4565 6.16153 79.6825 5.85407 79.7868 5.49862L79.0479 5.49859C78.9578 5.66009 78.8217 5.79115 78.657 5.87511C78.4922 5.95907 78.3062 5.99213 78.1226 5.97009C77.9794 5.97168 77.8374 5.94332 77.7058 5.88684C77.5742 5.83036 77.4558 5.74699 77.3583 5.64209C77.2608 5.53719 77.1863 5.41306 77.1395 5.27768C77.0928 5.14229 77.0748 4.99863 77.0868 4.85591V4.8129H79.8331V4.54506C79.8331 3.32378 79.1803 2.58445 78.0981 2.58445C77.8412 2.58226 77.5868 2.6353 77.3521 2.73999C77.1174 2.84468 76.908 2.99857 76.7379 3.19124C76.5679 3.38391 76.4412 3.61086 76.3665 3.85673C76.2918 4.1026 76.2708 4.36166 76.3049 4.61635C76.2699 4.87026 76.2905 5.12876 76.3654 5.3739C76.4403 5.61904 76.5676 5.84495 76.7386 6.03595C76.9095 6.22695 77.1199 6.37846 77.3553 6.47997C77.5907 6.58148 77.8453 6.63056 78.1015 6.62379C78.4698 6.66373 78.8404 6.57291 79.1485 6.36722ZM79.0512 4.24523H77.0868C77.0851 4.11249 77.11 3.98074 77.16 3.85775C77.21 3.73476 77.2841 3.62303 77.3779 3.52913C77.4718 3.43523 77.5835 3.36108 77.7065 3.31103C77.8294 3.26098 77.9612 3.23606 78.0939 3.23772C78.2248 3.23472 78.3548 3.25913 78.4757 3.30938C78.5965 3.35962 78.7055 3.4346 78.7957 3.52948C78.8858 3.62437 78.9551 3.73706 78.9992 3.86033C79.0432 3.9836 79.0609 4.11471 79.0512 4.24523ZM80.8991 1.14144H81.6666V6.54887H80.8991V1.14144ZM12.1276 1.38599C12.2112 2.47791 11.8659 3.55942 11.165 4.40085C10.8293 4.81831 10.4034 5.15416 9.91911 5.38311C9.43486 5.61207 8.90497 5.72817 8.36936 5.72265C8.33518 5.19756 8.40484 4.67087 8.57434 4.17272C8.74383 3.67456 9.00985 3.21469 9.35718 2.8194C10.0676 2.01026 11.0567 1.49846 12.1276 1.38599ZM14.0808 9.33326C13.7249 9.96027 13.5335 10.6671 13.5242 11.388C13.525 12.1989 13.7646 12.9916 14.213 13.6673C14.6613 14.343 15.2987 14.8717 16.0455 15.1876C15.7519 16.1415 15.3093 17.043 14.7341 17.8586C13.9616 19.0142 13.1516 20.1431 11.8661 20.164C11.2547 20.1781 10.842 20.0023 10.412 19.8191C9.96343 19.628 9.496 19.4289 8.76455 19.4289C7.98882 19.4289 7.50046 19.6344 7.02946 19.8326C6.62243 20.0039 6.22837 20.1698 5.67301 20.1928C4.44875 20.2381 3.51312 18.9595 2.71255 17.8148C1.11244 15.477 -0.133533 11.2267 1.53687 8.33466C1.92249 7.64171 2.48103 7.06048 3.15807 6.64758C3.8351 6.23467 4.60756 6.00419 5.40015 5.97858C6.0945 5.9643 6.76078 6.23192 7.34492 6.46655C7.79166 6.64599 8.19035 6.80613 8.51683 6.80613C8.80383 6.80613 9.19139 6.65232 9.64307 6.47305L9.64308 6.47305C10.3546 6.19066 11.2252 5.84514 12.1124 5.93826C12.7923 5.95953 13.4579 6.13905 14.0562 6.46255C14.6546 6.78605 15.1694 7.24463 15.5595 7.80186C14.9454 8.17945 14.4367 8.70625 14.0808 9.33326ZM56.6319 18.9675C55.22 18.9675 54.1867 18.2692 54.0678 17.2056L52.4247 17.2055C52.5284 19.1455 54.1344 20.3727 56.513 20.3727C59.0551 20.3727 60.6535 19.1159 60.6535 17.1093C60.6535 15.5405 59.7392 14.6566 57.5386 14.1361L56.3569 13.846C54.9745 13.5044 54.4094 13.0582 54.4094 12.3C54.4094 11.3485 55.2942 10.6948 56.5872 10.6948C57.8802 10.6948 58.765 11.3409 58.862 12.4113H60.4823C60.43 10.5607 58.8763 9.28964 56.61 9.28964C54.32 9.28964 52.7073 10.5607 52.7073 12.4113C52.7073 13.9059 53.6216 14.827 55.5911 15.3027L56.9811 15.6375C58.3711 15.9791 58.9582 16.4776 58.9582 17.3101C58.9582 18.2691 57.9848 18.9675 56.6319 18.9675ZM24.5795 17.2949H28.6677L29.6487 20.1939H31.4098L27.5375 9.46844H25.7384L21.8661 20.1939H23.5977L24.5795 17.2949ZM28.2435 15.9572H25.0029L26.6013 11.2524H26.646L28.2435 15.9572ZM36.5094 20.2758C38.4721 20.2758 39.7728 18.7146 39.7728 16.2846C39.7728 13.8613 38.4645 12.2925 36.4799 12.2924C35.9787 12.2763 35.4824 12.3963 35.044 12.6397C34.6055 12.8832 34.2413 13.2409 33.99 13.6749H33.9605V12.3743H32.4068V22.7809H34.0119V18.9077H34.049C34.2893 19.3438 34.6475 19.7034 35.0826 19.9453C35.5177 20.1873 36.0122 20.3018 36.5094 20.2758ZM36.0565 13.6605C37.3048 13.6605 38.1229 14.7014 38.1229 16.2846C38.1229 17.8821 37.3048 18.9153 36.0565 18.9153C34.8301 18.9153 34.0052 17.8601 34.0052 16.2846C34.0052 14.7233 34.8301 13.6605 36.0565 13.6605ZM48.3795 16.2845C48.3795 18.7146 47.0789 20.2758 45.1161 20.2758C44.6189 20.3018 44.1245 20.1873 43.6893 19.9453C43.2542 19.7034 42.896 19.3438 42.6557 18.9077H42.6186V22.7809H41.0135V12.3743H42.5671V13.6749H42.5967C42.848 13.2409 43.2122 12.8832 43.6507 12.6397C44.0891 12.3963 44.5853 12.2763 45.0866 12.2924C47.0713 12.2924 48.3795 13.8613 48.3795 16.2845ZM46.7297 16.2845C46.7297 14.7014 45.9115 13.6605 44.6632 13.6605C43.4368 13.6605 42.6119 14.7233 42.6119 16.2845C42.6119 17.8601 43.4368 18.9153 44.6632 18.9153C45.9115 18.9153 46.7297 17.8821 46.7297 16.2845ZM64.1175 10.5238V12.3743H65.6046V13.6454H64.1175V17.9563C64.1175 18.626 64.4153 18.9381 65.069 18.9381C65.2455 18.9351 65.4218 18.9227 65.597 18.901V20.1645C65.3031 20.2194 65.0044 20.2443 64.7054 20.2387C63.1223 20.2387 62.5048 19.6441 62.5048 18.1275V13.6454H61.3679V12.3743H62.5048V10.5238H64.1175ZM70.1745 12.2781C67.9149 12.2781 66.4658 13.8241 66.4658 16.2845C66.4658 18.7516 67.9005 20.291 70.1745 20.291C72.4493 20.291 73.8841 18.7516 73.8841 16.2845C73.8841 13.8241 72.4418 12.2781 70.1745 12.2781ZM70.1745 13.6006C71.4751 13.6006 72.2486 14.5967 72.2486 16.2845C72.2486 17.979 71.4751 18.9676 70.1745 18.9676C68.8739 18.9676 68.1013 17.979 68.1013 16.2845C68.1013 14.6043 68.8739 13.6006 70.1745 13.6006ZM75.2074 12.3742H76.7383V13.7052H76.7754C76.879 13.2895 77.1225 12.9221 77.4651 12.6648C77.8076 12.4075 78.2283 12.276 78.6564 12.2924C78.8413 12.2917 79.0258 12.3118 79.2063 12.3523V13.8536C78.9728 13.7823 78.7292 13.7495 78.4851 13.7566C78.2519 13.7472 78.0195 13.7883 77.8037 13.8771C77.5879 13.966 77.3939 14.1005 77.235 14.2714C77.0761 14.4423 76.956 14.6456 76.8831 14.8673C76.8102 15.089 76.7861 15.3238 76.8125 15.5557V20.1939H75.2074L75.2074 12.3742ZM83.2397 20.291C85.0084 20.291 86.3908 19.3168 86.6068 17.8972L85.0826 17.8972C84.9402 18.2505 84.6875 18.5484 84.3621 18.7466C84.0367 18.9448 83.6561 19.0326 83.2768 18.9971C82.9881 19.0077 82.7004 18.9568 82.4329 18.8477C82.1653 18.7386 81.9241 18.5738 81.7251 18.3644C81.5262 18.1549 81.3741 17.9054 81.2789 17.6327C81.1837 17.3599 81.1477 17.0699 81.1732 16.7822V16.6852H86.6962V16.1352C86.6962 13.7642 85.3357 12.2781 83.1722 12.2781C80.9724 12.2781 79.5529 13.8688 79.5529 16.3216C79.5529 18.7668 80.9649 20.291 83.2397 20.291ZM85.0902 15.5634H81.1808C81.1801 15.302 81.2312 15.043 81.3311 14.8015C81.4311 14.56 81.5778 14.3406 81.763 14.1561C81.9481 13.9716 82.168 13.8256 82.4098 13.7265C82.6517 13.6274 82.9108 13.5771 83.1722 13.5787C83.4313 13.5731 83.6888 13.6212 83.9284 13.7198C84.1681 13.8185 84.3847 13.9656 84.5648 14.152C84.7449 14.3383 84.8846 14.5599 84.975 14.8028C85.0654 15.0456 85.1046 15.3046 85.0902 15.5634Z" fill="white"/>
</svg>
