<svg width="128" height="30" viewBox="0 0 128 30" fill="none" xmlns="http://www.w3.org/2000/svg">
<path fill-rule="evenodd" clip-rule="evenodd" d="M43.731 6.43742C44.1925 6.75704 44.654 6.91133 45.1375 6.91133C45.4012 6.91133 45.6539 6.87827 45.8956 6.80112C46.1483 6.72397 46.3791 6.60274 46.5988 6.45946C46.8186 6.31618 46.9944 6.1178 47.1262 5.86431C47.2581 5.61082 47.324 5.32427 47.324 5.00465C47.324 4.68503 47.2581 4.39848 47.1482 4.15601C47.0383 3.91354 46.8625 3.71516 46.6428 3.54984C46.423 3.38452 46.2033 3.25226 45.9835 3.15307C45.7638 3.05388 45.5001 2.95469 45.1704 2.84447C44.7639 2.71222 44.4452 2.55792 44.2365 2.3926C44.0277 2.21626 43.9178 2.00685 43.9178 1.76438C43.9178 1.48885 44.0277 1.26843 44.2585 1.08106C44.4892 0.893702 44.7639 0.805531 45.0935 0.805531C45.4451 0.805531 45.7198 0.893702 45.9396 1.07004C46.1593 1.24638 46.2912 1.44477 46.3461 1.65417L47.1153 1.33455C47.0164 1.00391 46.7856 0.695318 46.434 0.419785C46.0824 0.144253 45.6319 0.000976562 45.0715 0.000976562C44.4782 0.000976562 43.9838 0.177317 43.6102 0.529999C43.2366 0.88268 43.0498 1.29047 43.0498 1.76438C43.0498 2.22728 43.2036 2.59098 43.5003 2.88856C43.808 3.18613 44.2475 3.41758 44.8298 3.60494C45.4012 3.78128 45.8077 3.96865 46.0714 4.16703C46.3351 4.36541 46.467 4.65197 46.467 5.01567C46.467 5.35733 46.3351 5.61082 46.0714 5.8092C45.8077 5.99656 45.4891 6.09576 45.1265 6.09576C44.7639 6.09576 44.4452 5.97452 44.1596 5.72103C43.8739 5.47856 43.6871 5.16997 43.5992 4.80626L42.8301 5.11486C42.9729 5.68797 43.2696 6.1178 43.731 6.43742ZM34.3693 0.155291V6.76807H36.391C37.4019 6.76807 38.204 6.45948 38.8083 5.85331C39.4127 5.23611 39.7203 4.44258 39.7203 3.46168C39.7203 2.48079 39.4127 1.68725 38.8083 1.07006C38.204 0.463887 37.3909 0.155291 36.3801 0.155291H34.3693ZM36.3801 5.9525H35.2154V0.959846H36.3801C37.1492 0.959846 37.7425 1.18027 38.193 1.62112C38.6435 2.06198 38.8633 2.66815 38.8633 3.45066C38.8633 4.24419 38.6435 4.85037 38.193 5.29122C37.7425 5.73207 37.1382 5.9525 36.3801 5.9525ZM59.1908 21.0958C59.1908 18.3845 61.3004 16.4117 63.8826 16.4117C66.4647 16.4117 68.5743 18.3845 68.5743 21.0958C68.5743 23.796 66.4647 25.7798 63.8826 25.7798C61.3004 25.7798 59.1908 23.796 59.1908 21.0958ZM61.2455 21.0958C61.2455 22.771 62.4651 23.9393 63.8826 23.9393C65.289 23.9393 66.5196 22.771 66.5196 21.0958C66.5196 19.4095 65.3 18.2523 63.8826 18.2523C62.4651 18.2523 61.2455 19.4095 61.2455 21.0958ZM48.9503 21.0958C48.9503 18.3845 51.0599 16.4117 53.642 16.4117C56.2241 16.4117 58.3338 18.3845 58.3338 21.0958C58.3338 23.796 56.2241 25.7798 53.642 25.7798C51.0599 25.7798 48.9503 23.796 48.9503 21.0958ZM51.005 21.0958C51.005 22.771 52.2246 23.9393 53.642 23.9393C55.0594 23.9393 56.2791 22.771 56.2791 21.0958C56.2791 19.4095 55.0594 18.2523 53.642 18.2523C52.2246 18.2523 51.005 19.4095 51.005 21.0958ZM41.4676 19.8393V17.8665H48.1372C48.2141 18.2192 48.2471 18.649 48.2471 19.1119C48.2471 20.5998 47.8405 22.4514 46.533 23.7629C45.2584 25.0965 43.6322 25.8019 41.4676 25.8019C37.4681 25.8019 34.1059 22.5285 34.1059 18.5168C34.1059 14.494 37.4681 11.2317 41.4676 11.2317C43.6872 11.2317 45.2584 12.1024 46.4451 13.2376L45.0496 14.6373C44.2036 13.8327 43.0499 13.2155 41.4786 13.2155C38.5559 13.2155 36.2705 15.5741 36.2705 18.5058C36.2705 21.4374 38.5559 23.796 41.4786 23.796C43.3685 23.796 44.4453 23.0355 45.1375 22.3412C45.6979 21.7791 46.0715 20.9525 46.2143 19.8393H41.4676ZM87.2534 16.4117C89.6817 16.4117 90.8684 18.3515 91.2529 19.3985L91.4727 19.9275L85.2207 22.5175C85.6932 23.4543 86.4403 23.9393 87.4842 23.9393C88.528 23.9393 89.2532 23.4213 89.7806 22.6387L91.3738 23.7078C90.8684 24.4683 89.6268 25.7798 87.4842 25.7798C84.8251 25.7798 82.8473 23.7188 82.8473 21.0958C82.8473 18.3074 84.8471 16.4117 87.2534 16.4117ZM87.3193 18.2302C86.2755 18.2302 84.8251 19.156 84.8801 20.9635L89.0554 19.2221C88.8247 18.638 88.1324 18.2302 87.3193 18.2302ZM81.8584 25.5043H79.8037V11.7276H81.8584V25.5043ZM76.3646 17.4587H76.4305V16.6983H78.3753V25.1185C78.3753 28.5792 76.3426 30.001 73.9363 30.001C71.6728 30.001 70.3104 28.48 69.7939 27.2346L71.5849 26.4852C71.9036 27.2456 72.6837 28.1494 73.9363 28.1494C75.4746 28.1494 76.4305 27.1905 76.4305 25.3941V24.7218H76.3646C75.9031 25.2949 75.0131 25.7908 73.9034 25.7908C71.563 25.7908 69.4204 23.7409 69.4204 21.1178C69.4204 18.4727 71.563 16.4117 73.9034 16.4117C75.0241 16.4117 75.9031 16.9077 76.3646 17.4587ZM71.4751 21.1178C71.4751 22.749 72.6617 23.9393 74.0791 23.9393C75.4856 23.9393 76.5844 22.749 76.5734 21.1178C76.5734 19.4756 75.4746 18.2633 74.0791 18.2633C72.6617 18.2633 71.4751 19.4646 71.4751 21.1178ZM95.9667 11.7276H100.878C103.142 11.7276 105.394 13.3808 105.394 16.0039C105.394 18.627 103.164 20.2802 100.889 20.2802H98.0214V25.5043H95.9667V11.7276ZM98.0104 18.3625H100.922C102.46 18.3625 103.328 17.073 103.328 15.9929C103.328 14.9128 102.46 13.6343 100.922 13.6343H98.0104V18.3625ZM109.943 18.4947C110.58 17.0509 112.119 16.3897 113.602 16.3897C115.942 16.3897 117.766 17.7563 117.755 20.203V25.4822H115.777V24.4132H115.712C115.239 25.1406 114.47 25.7578 113.096 25.7578C111.295 25.7578 109.69 24.5675 109.69 22.7269C109.69 20.71 111.679 19.6299 113.646 19.6299C114.624 19.6299 115.415 19.9495 115.788 20.159V20.0157C115.777 18.8805 114.69 18.2412 113.635 18.2412C112.877 18.2412 112.152 18.4947 111.767 19.2552L109.943 18.4947ZM111.745 22.771C111.745 23.5976 112.679 23.9393 113.349 23.9393C114.536 23.9393 115.635 23.0355 115.788 21.7681C115.25 21.5035 114.822 21.3052 113.921 21.3052C112.91 21.3052 111.745 21.713 111.745 22.771ZM122.623 22.6608L124.974 16.6872H127.26L121.623 29.6814H119.48L121.568 25.0414L117.909 16.6872H120.118L122.557 22.6608H122.623ZM108.57 25.5043H106.515V11.7276H108.57V25.5043ZM40.9179 0.155291H41.764V6.76807H40.9179V0.155291ZM49.4007 6.76807H48.5546V0.155291H50.7961C51.3565 0.155291 51.8399 0.342653 52.2465 0.717378C52.653 1.0921 52.8618 1.555 52.8618 2.12811C52.8618 2.69019 52.653 3.16411 52.2465 3.53883C51.8399 3.91356 51.3565 4.10092 50.7961 4.10092H49.4007V6.76807ZM49.4007 3.27432H50.8181C51.1697 3.27432 51.4554 3.15309 51.6751 2.91062C51.8949 2.66815 51.9938 2.40364 51.9938 2.11708C51.9938 1.83053 51.8839 1.56602 51.6751 1.32355C51.4554 1.08108 51.1697 0.959846 50.8181 0.959846H49.4007V3.27432ZM56.905 6.91134C57.8719 6.91134 58.674 6.58071 59.3223 5.90841C59.9596 5.24713 60.2892 4.43155 60.2892 3.46168C60.2892 2.50282 59.9596 1.68725 59.3113 1.01495C58.6521 0.342648 57.8499 0.0120086 56.894 0.0120086C55.9271 0.0120086 55.125 0.342648 54.4767 1.01495C53.8285 1.67623 53.5098 2.4918 53.5098 3.46168C53.5098 4.43155 53.8394 5.24713 54.4877 5.90841C55.136 6.58071 55.9381 6.91134 56.905 6.91134ZM56.905 6.09577C56.2018 6.09577 55.5975 5.8533 55.114 5.35734C54.6196 4.86138 54.3778 4.23317 54.3778 3.46168C54.3778 2.69019 54.6306 2.06197 55.114 1.56601C55.5975 1.07005 56.2018 0.827585 56.905 0.827585C57.6082 0.827585 58.2125 1.07005 58.696 1.56601C59.1904 2.06197 59.4322 2.69019 59.4322 3.46168C59.4322 4.23317 59.1795 4.86138 58.696 5.35734C58.2125 5.8533 57.6082 6.09577 56.905 6.09577ZM61.4759 0.155291H62.5087L65.7171 5.30224H65.7501L65.7171 4.02377V0.155291H66.5632V6.76807H65.6842L62.3329 1.37866H62.3L62.3329 2.65713V6.76807H61.4759V0.155291ZM68.9146 0.155291H68.0685V6.76807H68.9146V0.155291ZM70.4308 0.155291H72.8151C73.3315 0.155291 73.782 0.331631 74.1556 0.66227C74.5292 1.00393 74.727 1.43376 74.727 1.95176C74.727 2.27138 74.65 2.54691 74.4852 2.77836C74.3204 3.02083 74.1116 3.19717 73.837 3.31841V3.35147C74.1666 3.46168 74.4303 3.64904 74.6391 3.92458C74.8478 4.20011 74.9577 4.50871 74.9577 4.87241C74.9577 5.41245 74.7599 5.86433 74.3644 6.21701C73.9468 6.59173 73.4853 6.76807 72.936 6.76807H70.4308V0.155291ZM71.2768 2.98777H72.8151C73.1337 2.98777 73.3865 2.87755 73.5842 2.66815C73.782 2.45874 73.8699 2.2273 73.8699 1.97381C73.8699 1.72032 73.782 1.48887 73.5842 1.27946C73.3974 1.07006 73.1557 0.959846 72.8481 0.959846H71.2768V2.98777ZM71.2768 5.9525H72.9799C73.3095 5.9525 73.5732 5.84229 73.771 5.61084C73.9688 5.37939 74.0787 5.13692 74.0787 4.86139C74.0787 4.58586 73.9798 4.34339 73.76 4.12296C73.5513 3.90254 73.2766 3.7813 72.936 3.7813H71.2658V5.9525H71.2768ZM76.0786 0.155291V6.76807H79.7814V5.9525H76.9246V0.155291H76.0786ZM84.6928 0.970867H81.6931V3.06491H84.3961V3.85845H81.6931V5.9525H84.6928V6.76807H80.8471V0.155291H84.6928V0.970867ZM89.0878 0.970867H92.0875V0.155291H88.2418V6.76807H92.0875V5.9525H89.0878V3.85845H91.7908V3.06491H89.0878V0.970867ZM93.4062 6.76807V0.155291H94.4391L97.6475 5.30224H97.6804L97.6475 4.02377V0.155291H98.4935V6.76807H97.6145L94.2633 1.37866H94.2303L94.2633 2.65713V6.76807H93.4062ZM0 27.4129V1.55312C0 0.854204 0.283761 0.434855 0.851267 0.155291L13.762 14.5529L0.851267 28.8107C0.283761 28.6709 0 28.2516 0 27.4129ZM14.4705 13.7147L2.97851 0.854727L18.443 9.52118L14.4705 13.7147ZM18.3028 19.7262L14.4721 15.3928L2.69633 28.3926L18.3028 19.7262ZM25.5362 13.4346L19.4354 10.0798L15.1792 14.6926L19.1517 19.1656L25.3942 15.671C26.6712 15.112 26.6712 13.9937 25.5362 13.4346Z" fill="white"/>
</svg>
